<svg width="153" height="45" viewBox="0 0 153 45" fill="none" xmlns="http://www.w3.org/2000/svg">
<path d="M104.034 32.8412C101.903 32.8412 100.186 32.2291 99.0788 31.0764C98.7452 30.7279 98.5985 30.2409 98.6874 29.7673C98.7764 29.2937 99.0788 28.905 99.5147 28.7039C99.7104 28.6146 99.915 28.5699 100.128 28.5699C100.564 28.5699 100.974 28.762 101.249 29.1016C101.779 29.7539 102.704 30.1024 103.918 30.1024C105.684 30.1024 106.871 29.2311 106.871 27.9399C106.871 26.6576 105.839 26.1617 103.371 25.4781L103.282 25.4558C101.125 24.8571 98.167 24.035 98.167 20.8627C98.167 18.5662 99.6748 16.1133 103.905 16.1133C105.733 16.1133 107.178 16.578 108.188 17.4939C108.535 17.8067 108.704 18.2535 108.659 18.7226C108.61 19.1917 108.339 19.6162 107.934 19.853C107.712 19.9826 107.458 20.054 107.205 20.054C106.804 20.054 106.422 19.8887 106.128 19.5939C105.657 19.1203 104.892 18.8701 103.913 18.8701C102.935 18.8701 102.17 19.1203 101.698 19.5983C101.36 19.9379 101.178 20.3891 101.178 20.8672C101.178 21.7385 102.01 22.2701 104.354 22.9001C107.049 23.6239 109.927 24.6694 109.927 27.9444C109.922 30.3749 108.099 32.8412 104.034 32.8412ZM57.9421 32.7519C53.7879 32.7519 51.3105 30.6073 51.3105 27.0106C51.3105 23.3469 53.7434 21.4123 58.3424 21.4123C59.1429 21.4123 60.0725 21.4793 61.2512 21.6178C61.0999 20.1568 60.4328 18.8656 57.2883 18.8656C56.6166 18.8656 55.994 18.946 55.4336 19.0979C55.3135 19.1292 55.1889 19.1471 55.0688 19.1471C54.5752 19.1471 54.117 18.8745 53.8813 18.4411C53.6812 18.0792 53.6589 17.6503 53.8102 17.2705C53.9614 16.8863 54.2772 16.5959 54.6686 16.4708C55.5047 16.2072 56.4521 16.0687 57.4751 16.0687C63.5951 16.0687 64.3823 19.7726 64.3823 22.9984V30.3526C64.3823 30.5313 64.3023 30.7011 64.1644 30.8172C64.0621 30.8977 61.7893 32.7519 57.9421 32.7519ZM58.5959 24.0305C55.6026 24.0305 54.2727 24.9509 54.2727 27.0151C54.2727 28.9943 55.6026 29.9996 58.2178 29.9996C59.2541 29.9996 60.3927 29.7584 61.2867 29.3473V24.2181C60.5618 24.1288 59.561 24.0305 58.5959 24.0305ZM78.3703 32.6223C77.8944 32.6223 77.4497 32.39 77.1739 31.9968L72.0902 24.6694C71.9167 24.4237 71.9167 24.0886 72.0902 23.8384L76.8537 16.9265C77.1161 16.5467 77.552 16.3144 78.0145 16.3144C78.5438 16.3144 79.0197 16.6048 79.2643 17.0784C79.5089 17.5475 79.4734 18.1105 79.1709 18.5439L75.2036 24.2494L79.5534 30.3034C79.8736 30.7502 79.9181 31.3355 79.6691 31.827C79.4155 32.3185 78.9218 32.6223 78.3703 32.6223ZM69.0702 32.6223C68.2207 32.6223 67.5268 31.9253 67.5268 31.0719V13.2986C67.5268 12.4452 68.2207 11.7482 69.0702 11.7482C69.9197 11.7482 70.6135 12.4452 70.6135 13.2986V31.0719C70.6135 31.9253 69.9197 32.6223 69.0702 32.6223ZM93.8528 32.6223C93.0032 32.6223 92.3094 31.9253 92.3094 31.0719V17.8692C92.3094 17.0159 93.0032 16.3189 93.8528 16.3189C94.7023 16.3189 95.3961 17.0159 95.3961 17.8692V31.0719C95.3961 31.9253 94.7067 32.6223 93.8528 32.6223ZM88.56 32.6178C88.0218 32.5955 87.4925 32.5285 86.9944 32.4257C83.7743 31.76 81.9996 29.4813 81.9996 26.0142V13.2986C81.9996 12.4452 82.6935 11.7482 83.543 11.7482C84.3925 11.7482 85.0863 12.4452 85.0863 13.2986V16.3189H87.6616C88.431 16.3189 89.0537 16.9444 89.0537 17.7173C89.0537 18.4903 88.431 19.1158 87.6616 19.1158H85.0863V25.7372C85.0863 27.864 85.8958 29.1775 87.4926 29.6467C87.8439 29.7494 88.2442 29.812 88.6801 29.8298C89.4273 29.8656 90.0144 30.4732 90.0144 31.2194C90.0144 31.6036 89.8632 31.961 89.5874 32.2291C89.3294 32.4748 88.9781 32.6178 88.6223 32.6178H88.56ZM93.8661 15.1215C92.9143 15.1215 92.1938 14.4021 92.1938 13.4415C92.1938 12.4854 92.8965 11.7929 93.8661 11.7929C94.8179 11.7929 95.5073 12.4854 95.5073 13.4415C95.5117 14.4155 94.8179 15.1215 93.8661 15.1215Z" fill="#353535"/>
<path fill-rule="evenodd" clip-rule="evenodd" d="M44.1053 22.6008C44.1053 34.7511 34.2324 44.6008 22.0536 44.6008C9.87482 44.6008 0.00195312 34.7511 0.00195312 22.6008C0.00195312 10.4505 9.87482 0.6008 22.0536 0.6008C34.2324 0.6008 44.1053 10.4505 44.1053 22.6008ZM34.4316 26.3003C34.4405 26.3148 34.4494 26.3294 34.4583 26.345C34.8586 27.1358 35.0676 28.025 35.0632 28.923C35.0632 32.055 32.528 34.6017 29.4101 34.6017C27.8401 34.6017 26.3279 33.936 25.2604 32.7788C25.0292 32.5286 24.8157 32.2516 24.6333 31.9612C24.233 31.3268 24.4198 30.4823 25.0514 30.0802C25.6874 29.6781 26.5236 29.8657 26.9239 30.5002C27.0217 30.6521 27.1329 30.7951 27.253 30.9246C27.8179 31.5367 28.5829 31.8718 29.4101 31.8718C31.0335 31.8718 32.3501 30.5449 32.3501 28.9185C32.3501 28.4628 32.2478 28.025 32.0476 27.6184C32.0441 27.6131 32.0407 27.6093 32.0374 27.6057C32.0324 27.6001 32.0281 27.5953 32.0254 27.5871L31.9765 27.4933C31.4605 26.5506 30.4865 25.9653 29.4101 25.9653C28.8453 25.9653 28.3027 26.1261 27.8312 26.4299L24.7801 28.6281C24.7667 28.6371 24.749 28.6505 24.7356 28.6594L17.8283 33.6456H17.8239C17.8194 33.6456 17.815 33.6501 17.8105 33.6545C16.8854 34.2666 15.8046 34.5928 14.6927 34.5928C11.5749 34.5928 9.03969 32.0461 9.03969 28.9141C9.03969 28.0026 9.26207 27.1001 9.67571 26.2959C9.68238 26.2847 9.68906 26.2758 9.69573 26.2668C9.7024 26.2579 9.70907 26.249 9.71574 26.2378L13.2339 19.3796C13.2383 19.3751 13.2383 19.3751 13.2383 19.3706C13.2428 19.3661 13.2472 19.3617 13.2472 19.3572L17.1656 11.7216C18.1263 9.8495 20.0255 8.68784 22.1204 8.68784H22.1382C24.2419 8.69678 26.1411 9.87184 27.0929 11.7573L34.4049 26.2557C34.4138 26.2713 34.4227 26.2858 34.4316 26.3003ZM12.0686 27.6005C11.864 28.0071 11.7572 28.4494 11.7572 28.9141C11.7572 30.5404 13.0738 31.8629 14.6883 31.8674C15.2665 31.8674 15.818 31.7021 16.2939 31.3893L22.1826 27.1448L18.8647 20.5904V20.5859C18.8647 20.5837 18.8635 20.5825 18.8624 20.5814C18.8613 20.5803 18.8602 20.5792 18.8602 20.577C18.5489 19.9827 17.9351 19.6119 17.2679 19.6119C16.5874 19.6119 15.9736 19.9917 15.6623 20.6038L12.0908 27.5648C12.0882 27.5688 12.0855 27.5724 12.083 27.5758C12.077 27.5839 12.0717 27.5911 12.0686 27.6005ZM26.5636 24.0262C27.4265 23.5168 28.405 23.2354 29.4146 23.2354C29.5138 23.2354 29.613 23.2435 29.7108 23.2516C29.7577 23.2554 29.8043 23.2593 29.8505 23.2622L24.6689 12.986C24.1708 12.0075 23.2234 11.4177 22.1248 11.4133H22.1159C21.0218 11.4133 20.0744 11.9941 19.5718 12.9681L17.5526 16.9043C19.1137 17.0026 20.5192 17.8962 21.2575 19.2991C21.2597 19.3036 21.262 19.3092 21.2642 19.3148C21.2664 19.3204 21.2686 19.3259 21.2709 19.3304C21.272 19.3328 21.2732 19.3348 21.2744 19.3367C21.2777 19.342 21.2809 19.3462 21.2842 19.3527L24.4154 25.5319L26.2967 24.1781L26.3101 24.1647C26.3368 24.1513 26.3635 24.1379 26.3857 24.1245C26.4435 24.0887 26.5013 24.053 26.5636 24.0262Z" fill="#943FA1"/>
<path d="M118.764 32.6045C118.666 32.6045 118.577 32.542 118.542 32.4481L115.384 23.4542C115.357 23.3827 115.371 23.3023 115.415 23.2398C115.46 23.1772 115.531 23.1415 115.606 23.1415H116.749C116.852 23.1415 116.941 23.204 116.972 23.3023L119.36 30.2633L121.762 23.3023C121.793 23.2085 121.882 23.1415 121.984 23.1415H123.123C123.199 23.1415 123.27 23.1772 123.314 23.2398C123.359 23.3023 123.368 23.3827 123.345 23.4542L120.192 32.4481C120.161 32.542 120.072 32.6045 119.97 32.6045H118.764Z" fill="#943FA1"/>
<path d="M125.04 32.6045C124.911 32.6045 124.804 32.4973 124.804 32.3677V23.3693C124.804 23.2397 124.911 23.1325 125.04 23.1325H126.165C126.294 23.1325 126.401 23.2397 126.401 23.3693V32.3677C126.401 32.4973 126.294 32.6045 126.165 32.6045H125.04ZM125.609 21.1264C125.111 21.1264 124.738 20.7511 124.738 20.2507C124.738 19.7503 125.107 19.3884 125.609 19.3884C126.112 19.3884 126.468 19.7414 126.468 20.2507C126.468 20.76 126.107 21.1264 125.609 21.1264Z" fill="#943FA1"/>
<path d="M128.976 32.6044C128.847 32.6044 128.74 32.4972 128.74 32.3676V19.7994C128.74 19.6698 128.847 19.5626 128.976 19.5626H130.101C130.23 19.5626 130.337 19.6698 130.337 19.7994V32.3676C130.337 32.4972 130.23 32.6044 130.101 32.6044H128.976Z" fill="#943FA1"/>
<path d="M132.748 32.6044C132.619 32.6044 132.512 32.4972 132.512 32.3676V19.7994C132.512 19.6698 132.619 19.5626 132.748 19.5626H133.873C134.002 19.5626 134.109 19.6698 134.109 19.7994V32.3676C134.109 32.4972 134.002 32.6044 133.873 32.6044H132.748Z" fill="#943FA1"/>
<path d="M139.58 32.8011C137.08 32.7296 135.759 31.5724 135.759 29.4457C135.759 27.2743 137.129 26.1707 139.824 26.1707C140.327 26.1707 140.923 26.2154 141.692 26.3092C141.63 25.3442 141.27 24.4104 139.197 24.4104C138.423 24.4104 137.774 24.5757 137.258 24.8974C137.218 24.9197 137.178 24.9331 137.133 24.9331C137.071 24.9331 137.009 24.9063 136.964 24.8616L136.377 24.245C136.333 24.1959 136.311 24.1333 136.311 24.0663C136.315 23.9993 136.346 23.9412 136.395 23.8965C137.124 23.2934 138.103 22.9896 139.304 22.9896C142.822 22.9896 143.298 25.0135 143.298 26.9928V32.4035C143.298 32.533 143.191 32.6402 143.062 32.6402H142.155C142.03 32.6402 141.928 32.542 141.919 32.4169L141.915 32.3141C141.225 32.6313 140.411 32.8011 139.584 32.8011C139.584 32.8011 139.584 32.8011 139.58 32.8011ZM139.98 27.4843C138.112 27.4843 137.28 28.0874 137.28 29.4457C137.28 30.7637 138.09 31.4071 139.753 31.4071C140.425 31.4071 141.141 31.2463 141.706 30.9737V27.6138C141.19 27.5468 140.571 27.4843 139.98 27.4843Z" fill="#943FA1"/>
<path d="M148.555 32.8367C145.935 32.8367 144.939 31.3623 144.877 29.9862C144.872 29.9237 144.899 29.8611 144.943 29.812C144.988 29.7673 145.05 29.7405 145.112 29.7405H146.211C146.331 29.7405 146.433 29.8343 146.447 29.9549C146.531 30.8753 147.292 31.4249 148.484 31.4249C149.631 31.4249 150.401 30.8485 150.401 29.9907C150.401 29.0792 149.565 28.7709 148.186 28.3778C146.896 28.0293 145.121 27.5557 145.121 25.697C145.121 24.3656 146.002 22.9403 148.475 22.9403C150.943 22.9403 151.82 24.3656 151.82 25.697C151.82 25.8266 151.713 25.9338 151.584 25.9338H150.499C150.436 25.9338 150.379 25.907 150.334 25.8623C150.29 25.8176 150.267 25.7596 150.267 25.697C150.267 25.3709 150.143 25.067 149.916 24.8392C149.605 24.5264 149.111 24.3611 148.484 24.3611C147.857 24.3611 147.363 24.5264 147.052 24.8392C146.825 25.067 146.7 25.3753 146.7 25.697C146.7 26.3627 147.412 26.6889 148.72 27.0508C150.307 27.4618 152.006 28.0605 152.006 29.9907C152.002 31.4025 150.934 32.8367 148.555 32.8367Z" fill="#943FA1"/>
</svg>
